<?xml version="1.0" encoding="UTF-8"?>
<svg version="1.1" xmlns="http://www.w3.org/2000/svg" width="500" height="500">
<path d="M0 0 C4.06533094 1.87432455 6.84846093 4.58045724 9.96191406 7.73486328 C10.5477124 8.32036957 11.13351074 8.90587585 11.73706055 9.50912476 C13.66802839 11.44148356 15.59181947 13.38082516 17.515625 15.3203125 C18.85468611 16.66310456 20.19419009 18.00545513 21.53411865 19.34738159 C25.05664429 22.87753717 28.57312203 26.41365806 32.08837891 29.9510498 C35.67768551 33.56082851 39.27267256 37.16494015 42.8671875 40.76953125 C49.91703318 47.84081558 56.96050337 54.91841413 64 62 C62.4005841 65.95025066 59.66714076 68.6209906 56.69924927 71.5749054 C56.15316666 72.12622468 55.60708406 72.67754396 55.0444535 73.24556988 C53.21293899 75.09208923 51.3743418 76.93138685 49.53564453 78.77075195 C48.22126477 80.09275255 46.90728938 81.4151553 45.59368896 82.7379303 C42.02427536 86.32929577 38.44830334 89.91406011 34.87044001 93.4970057 C32.6371479 95.73393878 30.4051602 97.97216502 28.17361069 100.21083641 C20.39375892 108.0151794 12.60820605 115.81378796 4.81787109 123.60766602 C-2.45353563 130.88271376 -9.71168925 138.17080436 -16.96397102 145.46491271 C-23.18533571 151.72090237 -29.41621914 157.96730329 -35.6545707 164.20635384 C-39.38301205 167.93559029 -43.10732059 171.66874516 -46.82195663 175.41173744 C-50.31251963 178.9283493 -53.81470455 182.43294496 -57.32636261 185.92848778 C-58.61589134 187.21619184 -59.90112289 188.5082151 -61.1817894 189.80473328 C-62.92502508 191.56823044 -64.68280664 193.31577592 -66.44528198 195.06001282 C-66.95365345 195.58158425 -67.46202492 196.10315569 -67.98580158 196.64053231 C-69.42066765 198.04149342 -69.42066765 198.04149342 -72 200 C-76.43187611 199.91224658 -79.02382661 196.41188573 -81.9777832 193.44213867 C-82.56518784 192.86320358 -83.15259247 192.28426849 -83.75779724 191.68778992 C-85.69668487 189.77229823 -87.62417323 187.84580566 -89.55078125 185.91796875 C-90.8923795 184.58346877 -92.23427711 183.24926967 -93.57646179 181.9153595 C-96.38668 179.11859087 -99.1908835 176.31594836 -101.99145508 173.50952148 C-105.58739582 169.90767424 -109.20127398 166.32443649 -112.82029438 162.74579906 C-115.59549904 159.99639154 -118.35920561 157.23564967 -121.11971092 154.47149086 C-122.44788594 153.14501354 -123.78006784 151.82253604 -125.11623573 150.50411034 C-126.97932342 148.66306087 -128.82596204 146.80694833 -130.66918945 144.94604492 C-131.50672256 144.12840668 -131.50672256 144.12840668 -132.36117554 143.29425049 C-133.86933899 141.75212097 -133.86933899 141.75212097 -136 139 C-135.9083085 134.71698779 -132.61664048 132.20799892 -129.75462341 129.39385986 C-129.20248942 128.8391626 -128.65035543 128.28446533 -128.0814901 127.71295905 C-126.22601885 125.85253889 -124.36001404 124.00305686 -122.49389648 122.15332031 C-121.16307242 120.82334227 -119.83290822 119.49270366 -118.50335693 118.16145325 C-114.88831841 114.54555241 -111.26409098 110.93898914 -107.63817859 107.33399677 C-103.85183231 103.56637787 -100.07395472 99.79028704 -96.29518127 96.01507568 C-89.13655665 88.86578309 -81.97031757 81.72417355 -74.80133063 74.5852735 C-66.64078486 66.45823564 -58.48873489 58.32269872 -50.33739746 50.18642664 C-33.5677201 33.44812457 -16.78736932 16.72055686 0 0 Z " fill="#B96E2B" transform="translate(249,261)"/>
<path d="M0 0 C3.20047776 1.41190794 5.36790899 3.74865693 7.78451633 6.20637894 C8.3392136 6.75851293 8.89391087 7.31064692 9.46541715 7.87951225 C11.32583731 9.7349835 13.17531934 11.60098831 15.02505589 13.46710587 C16.35503392 14.79792993 17.68567254 16.12809413 19.01692295 17.45764542 C22.63282379 21.07268394 26.23938706 24.69691137 29.84437943 28.32282376 C33.61199833 32.10917004 37.38808915 35.88704763 41.16330051 39.66582108 C48.3125931 46.8244457 55.45420265 53.99068478 62.59310269 61.15967172 C70.72014056 69.32021749 78.85567748 77.47226746 86.99194956 85.62360489 C103.73025163 102.39328225 120.45781934 119.17363303 137.1783762 135.96100235 C135.32495624 139.96984478 132.68786907 142.7335859 129.58291721 145.8152504 C129.01198338 146.38968887 128.44104954 146.96412735 127.85281467 147.55597305 C125.9676319 149.44994567 124.07524241 151.33652382 122.18228245 153.2227211 C120.86924027 154.53711052 119.55649511 155.85179672 118.24403477 157.16676712 C115.4941892 159.91956007 112.74076135 162.66870576 109.98477268 165.41534805 C106.44928876 168.93942653 102.92287344 172.4724217 99.39908028 176.00818539 C96.69098971 178.72349531 93.97816311 181.43403305 91.26386929 184.14314079 C89.96141683 185.44425755 88.66045266 186.74686585 87.36099529 188.05097389 C85.54652977 189.87050702 83.72579652 191.68352456 81.90322971 193.4949379 C81.36546406 194.03675201 80.8276984 194.57856613 80.27363682 195.13679886 C77.9144497 197.46925135 76.37247891 198.89630145 73.1783762 199.96100235 C55.41377425 182.31306184 37.66339612 164.6509262 19.92996979 146.9716568 C11.69619948 138.76369782 3.45779108 130.56049612 -4.79159451 122.36822891 C-11.97947183 115.2300966 -19.15859719 108.08329863 -26.32723039 100.92583823 C-30.12534294 97.13425945 -33.92777387 93.347246 -37.74070835 89.57056808 C-41.32599139 86.01910352 -44.89949663 82.45621096 -48.46413517 78.88402939 C-49.77763313 77.57191231 -51.09545414 76.26410715 -52.41777325 74.96088028 C-54.21648139 73.18688766 -55.99928293 71.39832575 -57.77879238 69.60510635 C-58.31087419 69.08758875 -58.842956 68.57007115 -59.3911615 68.03687119 C-60.82070923 66.57715607 -60.82070923 66.57715607 -62.8216238 63.96100235 C-62.74720406 59.53155301 -59.23114875 56.93482751 -56.26376247 53.98321915 C-55.68482738 53.39581451 -55.1058923 52.80840988 -54.50941372 52.20320511 C-52.59392203 50.26431748 -50.66742947 48.33682912 -48.73959255 46.4102211 C-47.40509257 45.06862285 -46.07089347 43.72672524 -44.7369833 42.38454056 C-41.94021467 39.57432235 -39.13757217 36.77011885 -36.33114529 33.96954727 C-32.72929804 30.37360653 -29.14606029 26.75972837 -25.56742287 23.14070797 C-22.81801534 20.36550331 -20.05727347 17.60179674 -17.29311466 14.84129143 C-15.96663734 13.51311641 -14.64415984 12.18093451 -13.32573414 10.84476662 C-11.48468468 8.98167893 -9.62857213 7.13504031 -7.76766872 5.2918129 C-7.22257656 4.73345749 -6.6774844 4.17510208 -6.11587429 3.59982681 C-2.38281351 -0.0510117 -2.38281351 -0.0510117 0 0 Z " fill="#6C301E" transform="translate(101.82162380218506,113.03899765014648)"/>
<path d="M0 0 C3.07940537 1.6141003 5.37574459 4.07411377 7.80346203 6.51480865 C8.68456898 7.38321129 8.68456898 7.38321129 9.58347607 8.26915741 C11.5223637 10.1846491 13.44985205 12.11114166 15.37646008 14.03897858 C16.71805833 15.37347856 18.05995593 16.70767766 19.40214062 18.04158783 C22.21235883 20.83835646 25.01656232 23.64099896 27.8171339 26.44742584 C31.41307464 30.04927309 35.0269528 33.63251083 38.64597321 37.21114826 C41.42117787 39.96055579 44.18488444 42.72129766 46.94538975 45.48545647 C48.27356477 46.81193379 49.60574666 48.13441129 50.94191456 49.45283699 C52.80500225 51.29388645 54.65164086 53.149999 56.49486828 55.0109024 C57.05322369 55.55599457 57.61157909 56.10108673 58.18685436 56.66269684 C59.69501781 58.20482635 59.69501781 58.20482635 61.82567883 60.95694733 C61.33882688 65.5593574 58.10760852 68.08120965 54.96410656 71.1749649 C54.35258236 71.78853348 53.74105816 72.40210205 53.11100292 73.03426361 C51.08427546 75.06400241 49.04699372 77.0827816 47.00927258 79.10147858 C45.594388 80.513304 44.18009478 81.92572229 42.76636791 83.33870697 C39.79742675 86.30304164 36.82364071 89.26239599 33.8459425 92.21793365 C30.04535847 95.99036445 26.25338188 99.77129547 22.46460915 103.55558491 C18.83680557 107.17820498 15.20433973 110.79613637 11.57177258 114.41397858 C10.88594034 115.09793009 10.20010811 115.7818816 9.49349308 116.48655891 C2.77157669 123.18469426 -3.92365495 129.82561762 -11.17432117 135.95694733 C-12.54711351 137.24995344 -13.90625262 138.55803012 -15.23682117 139.89444733 C-16.12047352 140.77423248 -16.12047352 140.77423248 -17.02197742 141.67179108 C-18.78791984 143.54670271 -20.45813539 145.45365117 -22.13013172 147.41056061 C-26.86496715 152.8294717 -31.94991132 157.89676726 -37.03369617 162.98429108 C-38.07032722 164.02414239 -39.10688598 165.06406578 -40.14337635 166.10405731 C-42.29987946 168.26650386 -44.45839387 170.42691923 -46.61816883 172.58609772 C-49.38615016 175.35397662 -52.14713922 178.12872186 -54.90649509 180.90519619 C-57.03745601 183.04725377 -59.17292416 185.18477313 -61.30970478 187.32102394 C-62.3303975 188.34289629 -63.34947004 189.36638964 -64.36687946 190.39153099 C-65.78330026 191.81772253 -67.20667798 193.23699469 -68.63037586 194.65592194 C-69.43755054 195.46452164 -70.24472523 196.27312134 -71.07635975 197.10622406 C-73.17432117 198.95694733 -73.17432117 198.95694733 -76.17432117 199.95694733 C-96.63432117 179.49694733 -117.09432117 159.03694733 -138.17432117 137.95694733 C-136.19492463 133.99815424 -133.94950128 131.44348729 -130.87357044 128.38204193 C-130.32748784 127.83072265 -129.78140524 127.27940337 -129.21877468 126.71137744 C-127.38726016 124.86485809 -125.54866297 123.02556048 -123.70996571 121.18619537 C-122.39558594 119.86419477 -121.08161056 118.54179202 -119.76801014 117.21901703 C-116.19859654 113.62765156 -112.62262451 110.04288721 -109.04476118 106.45994163 C-106.81146908 104.22300855 -104.57948137 101.98478231 -102.34793186 99.74611092 C-94.5680801 91.94176793 -86.78252723 84.14315936 -78.99219227 76.34928131 C-71.72078555 69.07423357 -64.46263193 61.78614297 -57.21035016 54.49203461 C-50.98898547 48.23604496 -44.75810203 41.98964403 -38.51975048 35.75059348 C-34.79130912 32.02135703 -31.06700059 28.28820217 -27.35236454 24.54520988 C-23.86180154 21.02859803 -20.35961663 17.52400237 -16.84795856 14.02845955 C-15.55842983 12.74075549 -14.27319829 11.44873223 -12.99253178 10.15221405 C-11.24929609 8.38871689 -9.49151453 6.64117141 -7.72903919 4.89693451 C-6.96648199 4.11457736 -6.96648199 4.11457736 -6.1885196 3.31641501 C-2.73635089 -0.05418115 -2.73635089 -0.05418115 0 0 Z " fill="#BD8648" transform="translate(325.1743211746216,39.043052673339844)"/>
<path d="M0 0 C3.95932073 1.59864823 6.61966851 4.34546148 9.56817627 7.32766724 C10.11878999 7.8765721 10.6694037 8.42547697 11.23670268 8.99101532 C13.08088268 10.83190052 14.91782246 12.67984394 16.75488281 14.52783203 C18.0752235 15.84873683 19.39600468 17.16920144 20.7171936 18.48925781 C24.30397939 22.0754691 27.88455949 25.66781935 31.46407413 29.26128626 C35.20544849 33.0151517 38.95247639 36.76336509 42.69891357 40.51217651 C49.79307113 47.6125536 56.88211445 54.71801417 63.9693439 61.82530582 C72.03789202 69.91619819 80.11211076 78.00142141 88.18681574 86.08616853 C104.7975372 102.71780271 121.40110876 119.35655947 138 136 C136.12567545 140.06533094 133.41954276 142.84846093 130.26513672 145.96191406 C129.67963043 146.5477124 129.09412415 147.13351074 128.49087524 147.73706055 C126.55851644 149.66802839 124.61917484 151.59181947 122.6796875 153.515625 C121.33689544 154.85468611 119.99454487 156.19419009 118.65261841 157.53411865 C115.12246283 161.05664429 111.58634194 164.57312203 108.0489502 168.08837891 C104.43917149 171.67768551 100.83505985 175.27267256 97.23046875 178.8671875 C90.15918442 185.91703318 83.08158587 192.96050337 76 200 C72.04067927 198.40135177 69.38033149 195.65453852 66.43182373 192.67233276 C65.88121001 192.1234279 65.3305963 191.57452303 64.76329732 191.00898468 C62.91911732 189.16809948 61.08217754 187.32015606 59.24511719 185.47216797 C57.9247765 184.15126317 56.60399532 182.83079856 55.2828064 181.51074219 C51.69602061 177.9245309 48.11544051 174.33218065 44.53592587 170.73871374 C40.79455151 166.9848483 37.04752361 163.23663491 33.30108643 159.48782349 C26.20692887 152.3874464 19.11788555 145.28198583 12.0306561 138.17469418 C3.96210798 130.08380181 -4.11211076 121.99857859 -12.18681574 113.91383147 C-28.7975372 97.28219729 -45.40110876 80.64344053 -62 64 C-60.12567545 59.93466906 -57.41954276 57.15153907 -54.26513672 54.03808594 C-53.38687729 53.15938843 -53.38687729 53.15938843 -52.49087524 52.26293945 C-50.55851644 50.33197161 -48.61917484 48.40818053 -46.6796875 46.484375 C-45.33689544 45.14531389 -43.99454487 43.80580991 -42.65261841 42.46588135 C-39.12246283 38.94335571 -35.58634194 35.42687797 -32.0489502 31.91162109 C-28.43917149 28.32231449 -24.83505985 24.72732744 -21.23046875 21.1328125 C-14.15918442 14.08296682 -7.08158587 7.03949663 0 0 Z " fill="#8C6239" transform="translate(323,187)"/>
<path d="M0 0 C7.10512006 5.80138692 13.4701862 12.34389677 19.93359375 18.8359375 C21.17890345 20.0831151 22.42443621 21.33007001 23.67018127 22.57681274 C26.92905366 25.83948105 30.18491018 29.10514251 33.44012451 32.37145996 C36.77009779 35.71171062 40.10294673 39.04908931 43.43554688 42.38671875 C49.95983139 48.92168893 56.48092996 55.45982831 63 62 C61.42277918 65.82175141 59.01138557 68.22393046 56.09472656 71.11645508 C55.5968866 71.6129808 55.09904663 72.10950653 54.58612061 72.62107849 C52.94217357 74.25854508 51.29136511 75.88891557 49.640625 77.51953125 C48.49149476 78.66238554 47.34288184 79.80576021 46.19476318 80.94963074 C43.16978578 83.96130976 40.13930029 86.96737937 37.10717773 89.97186279 C32.26753918 94.76839822 27.43449366 99.5715511 22.60485077 104.37814903 C20.92454426 106.04831665 19.2408181 107.71497727 17.55670166 109.38130188 C16.51154607 110.4187791 15.46691056 111.45678057 14.42285156 112.49536133 C13.93224369 112.9828375 13.44163582 113.47031366 12.93616104 113.97256184 C10.3114936 116.60449551 7.85167566 119.29953762 5.50683594 122.18237305 C2.38501616 125.69122794 2.38501616 125.69122794 -1 126 C-3.26443892 124.21586152 -5.15188264 122.47913378 -7.14550781 120.42211914 C-7.75081329 119.81754379 -8.35611877 119.21296844 -8.97976685 118.59007263 C-10.9829597 116.58338885 -12.96785354 114.55955918 -14.953125 112.53515625 C-16.33637191 111.14258666 -17.72072493 109.75111497 -19.10614014 108.36070251 C-22.75373995 104.69399039 -26.38607928 101.01251237 -30.01550293 97.32781982 C-33.72003139 93.57219093 -37.43871288 89.83063534 -41.15625 86.08789062 C-48.45146767 78.7390105 -55.73065033 71.37446283 -63 64 C-61.41091724 60.64077747 -59.6486857 58.37921007 -57 55.75 C-56.29875 55.04359375 -55.5975 54.3371875 -54.875 53.609375 C-53 52 -53 52 -51 52 C-50.64452087 51.15703621 -50.64452087 51.15703621 -50.28186035 50.29704285 C-48.70410022 47.46975935 -46.78287063 45.53598813 -44.49023438 43.24731445 C-43.80698845 42.56122101 -43.80698845 42.56122101 -43.10993958 41.86126709 C-41.60937884 40.35701416 -40.10176159 38.86006168 -38.59375 37.36328125 C-37.54728339 36.31800722 -36.50118669 35.27236274 -35.45544434 34.22636414 C-33.26618233 32.0386642 -31.07360735 29.85435934 -28.87841797 27.67260742 C-26.06201799 24.87322835 -23.25227724 22.06727996 -20.44475555 19.25899982 C-18.28667436 17.10119021 -16.12599938 14.94599412 -13.96443176 12.79167747 C-12.92719074 11.75762206 -11.89055729 10.72295682 -10.85453796 9.68767738 C-9.40879448 8.24409678 -7.95936852 6.80420699 -6.50976562 5.36450195 C-5.68528931 4.54383743 -4.86081299 3.72317291 -4.01135254 2.87763977 C-2 1 -2 1 0 0 Z " fill="#BD8648" transform="translate(324,335)"/>
<path d="M0 0 C3.11152178 1.76985621 5.50331735 4.1947337 8.00767517 6.71247864 C8.5950798 7.29141373 9.18248444 7.87034882 9.78768921 8.46682739 C11.72657684 10.38231908 13.65406519 12.30881165 15.58067322 14.23664856 C16.92227147 15.57114854 18.26416908 16.90534764 19.60635376 18.23925781 C22.41657197 21.03602644 25.22077546 23.83866895 28.02134705 26.64509583 C31.61728779 30.24694307 35.23116595 33.83018082 38.85018635 37.40881824 C41.62539101 40.15822577 44.38909758 42.91896764 47.14960289 45.68312645 C48.47777791 47.00960377 49.8099598 48.33208127 51.1461277 49.65050697 C53.00921539 51.49155644 54.85585401 53.34766898 56.69908142 55.20857239 C57.25743683 55.75366455 57.81579224 56.29875671 58.3910675 56.86036682 C59.89923096 58.40249634 59.89923096 58.40249634 62.02989197 61.15461731 C61.54207062 65.69501075 58.42604507 68.15820808 55.3167572 71.20832825 C54.42408646 72.10165611 54.42408646 72.10165611 53.51338196 73.01303101 C51.54544421 74.9788795 49.5670952 76.93389004 47.58848572 78.88899231 C46.22162719 80.2502554 44.8554297 81.61218254 43.48986816 82.9747467 C39.89447694 86.55868518 36.29016754 90.13352332 32.6839447 93.70655823 C29.00543405 97.35437749 25.33540435 101.01070714 21.66465759 104.66633606 C14.46135723 111.83746467 7.2486094 118.99901064 0.02989197 126.15461731 C-4.50531109 122.35763222 -8.830248 118.43750377 -12.99720764 114.24104309 C-13.55418335 113.68421341 -14.11115906 113.12738373 -14.68501282 112.55368042 C-16.49987703 110.73812731 -18.31118714 108.91907337 -20.12245178 107.09992981 C-21.39018177 105.830332 -22.65813476 104.56095683 -23.92630005 103.29179382 C-27.2443558 99.96994157 -30.55939592 96.64509597 -33.87379456 93.31959534 C-37.26409158 89.91902222 -40.65726309 86.52131994 -44.05018616 83.12336731 C-50.69295965 76.46990711 -57.33254749 69.81327772 -63.97010803 63.15461731 C-58.170628 56.08589944 -51.7069858 49.67087578 -45.27479553 43.18586731 C-44.66746708 42.57321518 -44.06013863 41.96056305 -43.43440628 41.3293457 C-40.22993883 38.09831722 -37.02192199 34.87085654 -33.81141663 31.64582825 C-31.15658453 28.97757219 -28.50924383 26.30220041 -25.86805725 23.62043762 C-22.66909864 20.37235652 -19.45822024 17.13653967 -16.23817825 13.90936279 C-15.01468575 12.67913998 -13.79546614 11.44465254 -12.58060837 10.2059021 C-10.88839757 8.48227647 -9.18131307 6.7748809 -7.46961975 5.07063293 C-6.71986877 4.29627396 -6.71986877 4.29627396 -5.95497131 3.50627136 C-2.59238917 0.20345495 -2.59238917 0.20345495 0 0 Z " fill="#6C301E" transform="translate(398.97010803222656,112.84538269042969)"/>
<path d="M0 0 C3.34622688 1.31226308 5.58227818 3.97633193 8.05650425 6.49855423 C8.94983212 7.39122498 8.94983212 7.39122498 9.86120701 8.30192947 C11.8270555 10.26986722 13.78206604 12.24821623 15.73716831 14.22682571 C17.0984314 15.59368424 18.46035854 16.95988173 19.82292271 18.32544327 C23.40686119 21.92083449 26.98169932 25.52514389 30.55473423 29.13136673 C34.20255349 32.80987738 37.85888315 36.47990708 41.51451206 40.15065384 C48.68564067 47.35395421 55.84718665 54.56670203 63.00279331 61.78541946 C59.23788525 66.26924848 55.36629763 70.57937036 51.24449253 74.73659134 C50.43351612 75.55983398 50.43351612 75.55983398 49.60615635 76.39970779 C47.84289405 78.18748594 46.07576801 79.9713619 44.30748081 81.75416946 C43.70015236 82.36682159 43.09282391 82.97947372 42.46709156 83.61069107 C39.26262411 86.84171956 36.05460727 90.06918024 32.84410191 93.29420853 C30.18926981 95.96246458 27.54192911 98.63783637 24.90074253 101.31959915 C21.70178392 104.56768025 18.49090552 107.80349711 15.27086353 111.03067398 C14.04737103 112.26089679 12.82815142 113.49538423 11.61329365 114.73413467 C9.92108285 116.4577603 8.21399835 118.16515587 6.50230503 119.86940384 C5.75255405 120.64376282 5.75255405 120.64376282 4.98765659 121.43376541 C1.62507445 124.73658182 1.62507445 124.73658182 -0.96731472 124.94003677 C-4.0788365 123.17018057 -6.47063207 120.74530308 -8.97498989 118.22755814 C-9.56239452 117.64862305 -10.14979916 117.06968796 -10.75500393 116.47320938 C-12.69389156 114.5577177 -14.62137991 112.63122513 -16.54798794 110.70338821 C-17.88958619 109.36888823 -19.2314838 108.03468913 -20.57366848 106.70077896 C-23.38388669 103.90401033 -26.18809018 101.10136783 -28.98866177 98.29494095 C-32.58460251 94.6930937 -36.19848067 91.10985596 -39.81750107 87.53121853 C-42.59270573 84.781811 -45.3564123 82.02106913 -48.11691761 79.25691032 C-49.44509263 77.930433 -50.77727452 76.6079555 -52.11344242 75.2895298 C-53.97653011 73.44848034 -55.82316873 71.59236779 -57.66639614 69.73146439 C-58.50392925 68.91382614 -58.50392925 68.91382614 -59.35838223 68.07966995 C-62.94011188 64.41727447 -62.94011188 64.41727447 -63.17774868 61.78740311 C-61.36465489 58.71272712 -58.95196777 56.30689879 -56.43934536 53.80763626 C-55.86041027 53.22023163 -55.28147518 52.632827 -54.6849966 52.02762222 C-52.76950492 50.08873459 -50.84301235 48.16124624 -48.91517544 46.23463821 C-47.58067546 44.89303996 -46.24647636 43.55114236 -44.91256618 42.20895767 C-42.11579756 39.39873946 -39.31315505 36.59453597 -36.50672817 33.79396439 C-32.90488093 30.19802365 -29.32164318 26.58414549 -25.74300575 22.96512508 C-22.99359823 20.18992042 -20.23285636 17.42621385 -17.46869755 14.66570854 C-16.14222022 13.33753352 -14.81974272 12.00535163 -13.50131702 10.66918373 C-11.66026756 8.80609604 -9.80415502 6.95945743 -7.94325161 5.11623001 C-7.39815945 4.5578746 -6.85306728 3.9995192 -6.29145718 3.42424393 C-2.51391538 -0.27009589 -2.51391538 -0.27009589 0 0 Z " fill="#B96E2B" transform="translate(175.99720668792725,39.21458053588867)"/>
<path d="M0 0 C4.50075846 3.76993485 8.79940197 7.65604615 12.93530273 11.82177734 C13.48252487 12.36885345 14.02974701 12.91592957 14.59355164 13.47958374 C16.37595053 15.26267133 18.15479523 17.04925883 19.93359375 18.8359375 C21.17890345 20.0831151 22.42443621 21.33007001 23.67018127 22.57681274 C26.92905366 25.83948105 30.18491018 29.10514251 33.44012451 32.37145996 C36.77009779 35.71171062 40.10294673 39.04908931 43.43554688 42.38671875 C49.95983139 48.92168893 56.48092996 55.45982831 63 62 C61.26798575 65.70442254 59.17198443 68.04517135 56.23828125 70.921875 C55.76939987 71.38555481 55.30051849 71.84923462 54.81742859 72.32696533 C53.32048402 73.80617025 51.81704251 75.27852701 50.3125 76.75 C42.78282608 84.0428624 42.78282608 84.0428624 35.7109375 91.76953125 C30.56400796 97.79110744 24.89117865 103.33243013 19.30151367 108.9387207 C17.29989764 110.95016424 15.30919137 112.97203006 13.31835938 114.99414062 C12.04232417 116.27669616 10.76565412 117.55862047 9.48828125 118.83984375 C8.89654617 119.44392563 8.3048111 120.04800751 7.69514465 120.6703949 C7.13743881 121.22509964 6.57973297 121.77980438 6.00512695 122.35131836 C5.27734795 123.08456581 5.27734795 123.08456581 4.53486633 123.83262634 C2.50570572 125.37594552 1.59330139 126.00527241 -1 126 C-3.23938389 124.26776923 -5.098807 122.58393868 -7.06958008 120.57739258 C-7.66673828 119.98899597 -8.26389648 119.40059937 -8.87915039 118.79437256 C-10.85540182 116.84018087 -12.81274205 114.86819718 -14.76953125 112.89453125 C-16.13311324 111.53431546 -17.49743688 110.17484278 -18.86247253 108.81608582 C-21.72276201 105.96317667 -24.57378975 103.10139619 -27.41870117 100.2331543 C-31.07178579 96.55158241 -34.74685551 92.89291031 -38.42914295 89.24057484 C-41.25110052 86.43665827 -44.0610728 83.62097439 -46.86752892 80.80154991 C-48.21829539 79.44744062 -49.57280626 78.09705613 -50.93103981 76.75043678 C-52.82550336 74.86862825 -54.70326589 72.97161369 -56.57739258 71.06958008 C-57.14509872 70.51199509 -57.71280487 69.9544101 -58.29771423 69.37992859 C-59.83137512 67.80354309 -59.83137512 67.80354309 -62 65 C-61.51839715 60.46007134 -58.39465727 57.99494185 -55.28686523 54.94628906 C-54.6917514 54.35073715 -54.09663757 53.75518524 -53.48348999 53.1415863 C-51.51555224 51.17573781 -49.53720323 49.22072727 -47.55859375 47.265625 C-46.19173522 45.90436191 -44.82553774 44.54243477 -43.4599762 43.17987061 C-39.86458498 39.59593213 -36.26027557 36.02109399 -32.65405273 32.44805908 C-28.97554208 28.80023982 -25.30551238 25.14391017 -21.63476562 21.48828125 C-14.43146526 14.31715264 -7.21871743 7.15560667 0 0 Z " fill="#BD8648" transform="translate(101,261)"/>
</svg>
